<?xml version="1.0" encoding="utf-8"?>
<!-- Generator: Adobe Illustrator 23.0.3, SVG Export Plug-In . SVG Version: 6.00 Build 0)  -->
<svg version="1.1" id="Calque_1" xmlns="http://www.w3.org/2000/svg" xmlns:xlink="http://www.w3.org/1999/xlink" x="0px" y="0px"
	 viewBox="0 0 315 154.3" style="enable-background:new 0 0 315 154.3;" xml:space="preserve">
<style type="text/css">
	.st0{fill:#E2801B;}
</style>
<rect x="257.6" y="110.1" transform="matrix(1 -1.289958e-03 1.289958e-03 1 -0.1696 0.3639)" class="st0" width="48.9" height="43"/>
<polygon class="st0" points="306.4,110.1 282,88.9 257.5,110.2 "/>
<rect x="5.5" y="104.8" transform="matrix(1 -1.289958e-03 1.289958e-03 1 -0.1671 3.870983e-02)" class="st0" width="48.9" height="49.5"/>
<polygon class="st0" points="54.3,104.8 29.9,79.2 5.5,104.8 "/>
<rect x="67" y="56.4" transform="matrix(1 -1.289958e-03 1.289958e-03 1 -0.1354 0.1181)" class="st0" width="48.9" height="97.3"/>
<rect x="112.5" y="98.6" transform="matrix(1 -1.289958e-03 1.289958e-03 1 -0.1623 0.1909)" class="st0" width="70.7" height="54.5"/>
<polygon class="st0" points="183.2,98.6 112.5,129.4 112.5,74.9 170.4,74.8 "/>
<polygon class="st0" points="115.9,56.3 91.3,6.1 67,56.4 "/>
<rect x="195.6" y="56.4" transform="matrix(1 -1.289958e-03 1.289958e-03 1 -0.1349 0.2839)" class="st0" width="48.9" height="96.6"/>
</svg>
