<?xml version="1.0" encoding="utf-8"?>
<!-- Generator: Adobe Illustrator 26.2.1, SVG Export Plug-In . SVG Version: 6.00 Build 0)  -->
<svg version="1.1" xmlns="http://www.w3.org/2000/svg" xmlns:xlink="http://www.w3.org/1999/xlink" x="0px" y="0px"
	 viewBox="0 0 331 92" style="enable-background:new 0 0 331 92;" xml:space="preserve">
<style type="text/css">
	.st0{display:none;}
	.st1{display:inline;fill:#E2801B;}
	.st2{display:inline;}
	.st3{fill:#E2801B;}
	.st4{display:inline;fill:#1E3D59;}
	.st5{display:inline;fill:none;stroke:#1E3D59;stroke-width:141.1228;stroke-miterlimit:10;}
</style>
<g id="Calque_8" class="st0">
	<path class="st1" d="M6.12,7.95c34.74,0,294.34,0,319.28,0c-17.16,26.01-75.23,86.08-175.48,86.08
		C78.28,94.03,22.93,37.5,6.12,7.95z"/>
	<g class="st2">
		<rect x="14.19" y="-38.18" class="st3" width="48.91" height="49.49"/>
	</g>
	<g class="st2">
		<rect x="75.79" y="-86.5" class="st3" width="48.91" height="97.33"/>
		<rect x="121.26" y="-44.17" class="st3" width="70.69" height="54.48"/>
	</g>
	<rect x="204.35" y="-86.31" class="st1" width="48.91" height="96.62"/>
	<g class="st2">
		<rect x="266.28" y="-32.5" class="st3" width="48.91" height="43.04"/>
	</g>
	<path class="st4" d="M160.58,104.78c75.13-1.13,136.1-32.13,182.92-93.02L443,112.42c-76.45,89.77-167.44,135.43-272.94,137.02
		c-105.52,1.59-192.92-30.81-262.18-97.22c-69.27-66.4-104.66-151-106.17-253.8c-1.51-102.79,32.01-189.09,100.58-258.9
		c68.57-69.8,153.16-105.46,253.78-106.98c112.37-1.69,207.09,40.19,284.16,125.65l-93.46,110.51
		c-49.25-60.09-109.81-89.59-181.67-88.51c-57.5,0.87-106.39,20.62-146.66,59.24c-40.28,38.64-59.94,90.17-58.99,154.63
		c0.95,64.46,20.97,115.9,60.11,154.32C58.69,86.82,105.69,105.6,160.58,104.78z"/>
</g>
<g id="maison2" class="st0">
	<g class="st2">
		<rect x="266.28" y="-32.5" class="st3" width="48.91" height="43.04"/>
	</g>
</g>
<g id="maison1" class="st0">
	<g class="st2">
		<rect x="14.19" y="-38.18" class="st3" width="48.91" height="49.49"/>
	</g>
</g>
<g id="eglise" class="st0">
	<g class="st2">
		<rect x="75.79" y="-86.5" class="st3" width="48.91" height="97.33"/>
		<rect x="121.26" y="-44.17" class="st3" width="70.69" height="54.48"/>
	</g>
</g>
<g id="base" class="st0">
	<path class="st1" d="M6.12,7.95c34.74,0,294.34,0,319.28,0c-17.16,26.01-75.23,86.08-175.48,86.08
		C78.28,94.03,22.93,37.5,6.12,7.95z"/>
</g>
<g id="immeuble" class="st0">
	<rect x="204.35" y="-86.31" class="st1" width="48.91" height="96.62"/>
</g>
<g id="c" class="st0">
	<path class="st4" d="M521.61-115.23c-1.51-102.8-36.9-187.4-106.17-253.8c-37.25-35.71-79.76-61.58-127.5-77.62
		c-40.86-14.57-84.82-21.51-131.87-20.8C55.45-465.93-29.14-430.27-97.71-360.47c-68.57,69.81-102.1,156.11-100.58,258.9
		c1.51,102.8,36.9,187.4,106.17,253.8c37.25,35.71,79.76,61.58,127.5,77.62c40.86,14.57,84.82,21.51,131.87,20.8
		c100.62-1.52,185.21-37.18,253.78-106.98C489.6,73.86,523.12-12.44,521.61-115.23z M19.57,48.38
		C-19.56,9.97-39.59-41.48-40.54-105.93c-0.95-64.46,18.71-115.99,58.99-154.63c40.26-38.62,89.16-58.38,146.66-59.24
		c21.87-0.33,42.69,2.19,62.46,7.53c28.05,9.07,53.45,24.76,76.18,47.09c39.13,38.42,59.16,89.86,60.11,154.32
		S345.14,5.12,304.86,43.76C264.6,82.38,215.71,102.13,158.21,103c-21.87,0.33-42.69-2.19-62.46-7.53
		C67.69,86.4,42.3,70.71,19.57,48.38z"/>
</g>
<g id="Calque_9" class="st0">
</g>
<g id="apo" class="st0">
</g>
<g id="Calque_10" class="st0">
	<path class="st5" d="M394.84,63.74C342.45,133.72,258.89,179,164.75,179C6.11,179-122.5,50.39-122.5-108.25
		S6.11-395.5,164.75-395.5c92.26,0,174.37,43.5,226.92,111.11"/>
</g>
<g id="Calque_12">
	<path class="st3" d="M326,7.5c-26.74,37.81-83,78.39-156.77,80.23C119.43,89.57,53.99,68.57,6,7.5H326z"/>
</g>
<g id="Calque_11" class="st0">
</g>
</svg>
